PathFileType	4	(X/Y/Z)	C:\Users\Basilio\Documents\Thesis Gigler\squatting_fais\c3dfiles\058\SJ_pre2\markers_experimental.trc
DataRate	CameraRate	NumFrames	NumMarkers	Units	OrigDataRate	OrigDataStartFrame	OrigNumFrames
200.000000	200.000000	4	61	mm	200.000000	318	1272
Frame#	Time	FHD			LBHD			RBHD			C7			T10			CLAV			LSHO			LUUPA			LMUPA			LDUPA			LLEP			LMEP			LRAD			LUL			LRFIN			RSHO			RUPA1			RMUPA			RDUPA			RLEP			RMEP			RRAD			RUL			RUFIN			LASI			RASI			USACR			LSACR			RSACR			LTHI1			LTHI2			LTHI3			LTHI4			LLFC			LMFC			LTIB1			LTIB2			LTIB3			LTIB4			LLMAL			LMMAL			LHEE			LMT1			LMT2			LMT5			RTHI			RTHI2			RTHI3			RTHI4			RLFC			RMFC			RTIB1			RTIB2			RTIB3			RTIB4			RLMAL			RMMAL			RHEE			RMT1			RMT2			RMT5			
		X1	Y1	Z1	X2	Y2	Z2	X3	Y3	Z3	X4	Y4	Z4	X5	Y5	Z5	X6	Y6	Z6	X7	Y7	Z7	X8	Y8	Z8	X9	Y9	Z9	X10	Y10	Z10	X11	Y11	Z11	X12	Y12	Z12	X13	Y13	Z13	X14	Y14	Z14	X15	Y15	Z15	X16	Y16	Z16	X17	Y17	Z17	X18	Y18	Z18	X19	Y19	Z19	X20	Y20	Z20	X21	Y21	Z21	X22	Y22	Z22	X23	Y23	Z23	X24	Y24	Z24	X25	Y25	Z25	X26	Y26	Z26	X27	Y27	Z27	X28	Y28	Z28	X29	Y29	Z29	X30	Y30	Z30	X31	Y31	Z31	X32	Y32	Z32	X33	Y33	Z33	X34	Y34	Z34	X35	Y35	Z35	X36	Y36	Z36	X37	Y37	Z37	X38	Y38	Z38	X39	Y39	Z39	X40	Y40	Z40	X41	Y41	Z41	X42	Y42	Z42	X43	Y43	Z43	X44	Y44	Z44	X45	Y45	Z45	X46	Y46	Z46	X47	Y47	Z47	X48	Y48	Z48	X49	Y49	Z49	X50	Y50	Z50	X51	Y51	Z51	X52	Y52	Z52	X53	Y53	Z53	X54	Y54	Z54	X55	Y55	Z55	X56	Y56	Z56	X57	Y57	Z57	X58	Y58	Z58	X59	Y59	Z59	X60	Y60	Z60	X61	Y61	Z61	

319	1.59	74.47462463378908	1155.868408203125	-799.6138916015627	-83.8832244873047	1112.521850585938	-874.3632812500002	85.33965301513673	1166.05712890625	-941.4983520507815	-121.5058746337891	1045.739379882813	-904.3067016601565	-363.9019775390626	872.0451660156252	-910.2405395507815	-30.44436645507813	901.3043212890627	-873.782165527344	15.21489715576172	933.7124023437502	-1036.553100585938	-118.6560287475586	932.7434692382815	-1227.4326171875	-133.3236389160157	884.4985351562502	-1230.53125	-169.7749786376953	911.074645996094	-1270.722290039063	-245.2335815429688	885.231140136719	-1313.13037109375	-292.1801147460938	937.3055419921877	-1277.1806640625	-399.9757690429689	769.362487792969	-1114.1884765625	-408.5509338378907	703.8007202148439	-1162.600463867188	-340.2723388671876	733.1136474609376	-1088.796752929688	-27.96910285949708	965.2380981445315	-709.1877441406251	-209.0777740478516	998.0352172851565	-574.7959594726564	-225.0977172851563	950.0957641601565	-570.5777587890626	-269.2355957031251	977.7885742187502	-542.8920288085939	-340.2810668945313	972.324645996094	-517.8098144531251	-388.2738647460939	1002.191101074219	-589.0371704101564	-409.779754638672	780.851989746094	-700.2099609375001	-409.3486938476564	730.3696899414064	-637.3699340820314	-358.5619506835938	727.8353881835939	-727.6513671875001	-369.7675781250001	612.5291137695314	-1010.890747070313	-391.5477600097657	623.4323730468751	-778.9973144531252	-479.030487060547	790.5110473632815	-910.9635009765627	-501.8118591308595	771.1157226562502	-940.8983154296877	-509.7343750000001	772.4620361328127	-883.8834228515627	-294.1879882812501	560.1414794921876	-1145.327026367188	-209.5713958740235	548.6168212890626	-1156.612915039063	-183.4491119384766	581.1776733398439	-1128.814331054688	-179.1558685302735	495.9061889648439	-1164.031982421875	-107.0274810791016	446.4053039550782	-1163.095825195313	-83.81264495849611	433.3841857910157	-1041.064453125	-93.54727172851564	309.9811401367188	-1127.840454101563	-162.2171630859375	309.4385681152344	-1181.79541015625	-131.6971435546875	284.1009216308594	-1158.634765625	-181.9597930908203	218.7205047607422	-1130.37548828125	-336.7065124511719	90.34279632568361	-1141.737426757813	-302.6048278808594	92.44150543212892	-1053.815185546875	-404.9157104492189	52.06085586547853	-1086.3935546875	-178.8302154541016	61.44939422607423	-1107.206665039063	-184.131088256836	59.32933425903322	-1154.492431640625	-239.9482727050782	37.5807228088379	-1202.076782226563	-423.2629699707032	564.9550781250001	-676.5335083007814	-360.1152343750001	577.7758178710939	-659.5303955078126	-343.8685302734376	605.7955322265626	-664.6375122070314	-301.8305969238282	520.6240844726564	-642.4743041992189	-168.5648651123047	454.2326965332032	-612.5183715820314	-107.669189453125	448.7192382812501	-732.9644165039064	-162.5366821289063	276.2616577148438	-691.9022216796876	-240.3981323242188	224.1297149658204	-632.3454589843751	-207.7781677246094	205.5887145996094	-659.9923095703126	-230.355209350586	168.0288391113282	-697.3630371093751	-334.4379882812501	93.8633270263672	-664.6230468750001	-285.8934326171876	98.92324829101565	-746.1459960937501	-394.3108520507814	52.19455718994142	-733.6623535156251	-183.1471557617188	54.19120407104494	-674.9273071289064	-196.5768280029297	61.41066360473634	-625.0357055664064	-252.7849121093751	28.60181236267091	-584.8449707031251	
320	1.595	75.5172576904297	1152.65380859375	-799.6000976562502	-83.07284545898439	1109.272583007813	-874.297790527344	86.01038360595705	1162.6455078125	-941.379821777344	-120.5242767333985	1042.657836914063	-904.2623291015627	-363.8960571289063	869.5581054687502	-910.4060668945315	-30.01902770996094	897.9809570312502	-873.8025512695315	15.46379280090332	930.319519042969	-1036.524291992188	-118.0088577270508	929.952331542969	-1227.496826171875	-132.7815856933594	881.854187011719	-1230.631469726563	-169.221923828125	908.3936767578127	-1270.81005859375	-244.3440246582032	882.3929443359377	-1313.317749023438	-292.1669921875001	934.5988769531252	-1277.2841796875	-399.8490295410157	767.3541870117189	-1114.370849609375	-408.4154052734376	701.8808593750001	-1162.68701171875	-340.1827087402344	731.0357666015626	-1089.040771484375	-27.67025756835938	961.8428955078127	-709.2267456054689	-208.358627319336	995.1218261718752	-575.0873413085939	-224.8769226074219	947.341491699219	-570.6681518554689	-268.9374084472657	975.0456542968752	-543.0768432617189	-339.7630920410157	969.9873657226565	-518.1049194335939	-387.8298950195314	999.9953613281252	-589.3759155273439	-410.1602478027345	778.573913574219	-700.2322387695314	-409.3881225585939	728.0941162109376	-637.4924926757814	-358.8116149902344	725.6554565429689	-727.7496948242189	-370.2617492675782	610.9340209960939	-1012.444458007813	-391.2117004394532	620.5501098632814	-780.421569824219	-479.1659545898439	788.381286621094	-911.086608886719	-502.0687866210939	769.1416625976565	-941.0711669921877	-509.7254028320314	770.2014770507815	-884.0960083007815	-294.0198059082032	558.7723388671876	-1145.050415039063	-209.0886993408204	547.4934692382814	-1156.146850585938	-183.1459503173828	580.3662719726564	-1128.235229492188	-178.5976715087891	495.0501403808595	-1163.397216796875	-106.5764312744141	445.8325195312501	-1162.548095703125	-83.29747772216798	432.7429504394532	-1040.265625	-93.10476684570314	309.6040649414063	-1127.036010742188	-161.7783508300782	309.2095336914063	-1181.269287109375	-131.2333068847657	284.7180786132813	-1158.223388671875	-181.5707244873047	218.663558959961	-1129.985473632813	-336.6343994140626	90.35530090332033	-1141.642700195313	-302.6161193847657	92.34548187255861	-1053.710327148438	-404.9029846191407	52.05418395996095	-1086.411865234375	-179.0371856689453	61.06161880493165	-1107.473266601563	-184.327377319336	59.76191711425783	-1154.314086914063	-239.9229736328126	37.59519958496094	-1202.061279296875	-423.2672424316407	563.3514404296876	-676.7033691406251	-360.2303771972657	576.6101074218751	-659.7579345703126	-343.9708251953126	604.6131591796876	-665.0753173828126	-301.6230773925782	519.8796386718751	-642.9219970703126	-167.9165802001953	453.9221191406251	-613.3038940429689	-107.5839233398438	448.227508544922	-733.2632446289064	-162.4551239013672	276.1275024414063	-692.2465209960939	-240.3176574707032	224.1710357666016	-632.6851196289064	-207.3393249511719	205.4925689697266	-660.3044433593751	-230.2229309082032	167.935531616211	-697.6385498046876	-334.3842773437501	93.90692138671876	-664.7393798828126	-285.7278747558594	98.80720520019534	-746.3152465820314	-394.3033752441407	52.19514083862306	-733.7127075195314	-183.1139678955078	54.15297317504884	-674.9598999023439	-196.5771179199219	61.43115615844728	-625.0458984375001	-252.8320007324219	28.6901969909668	-584.9125976562501	
321	1.6	75.9757766723633	1149.160888671875	-799.4177856445315	-82.38053131103517	1106.20166015625	-874.101989746094	86.78255462646486	1159.379272460938	-941.1846313476565	-120.0266189575196	1039.757202148438	-904.3028564453127	-363.6376647949219	867.4859619140627	-910.5306396484377	-29.57940101623536	894.8096313476565	-873.8664550781252	15.72209072113037	927.0413818359377	-1036.404663085938	-117.497802734375	927.2521972656252	-1227.519775390625	-132.2059020996094	879.278015136719	-1230.710327148438	-168.739990234375	905.9035644531252	-1270.864501953125	-244.3379516601563	880.3854980468752	-1313.287231445313	-291.1075439453126	932.7551879882815	-1277.351806640625	-399.7971191406251	765.4097290039064	-1114.531005859375	-408.2216186523439	699.9329223632814	-1162.913330078125	-339.7891845703126	729.2758178710939	-1089.2685546875	-27.03172111511231	958.3961181640627	-709.2861938476564	-207.8704681396485	992.307067871094	-575.1617431640626	-224.4631347656251	944.6119384765627	-570.7927246093751	-268.2669982910157	972.5193481445315	-543.3132934570314	-339.3985595703126	967.466979980469	-518.3471679687501	-387.2834472656251	997.7608032226565	-589.5404052734376	-410.1951904296876	776.2602539062502	-700.3256225585939	-409.6708068847657	725.8127441406251	-637.7094726562501	-359.1005859375001	723.4973144531251	-727.7100830078126	-370.1156616210938	608.8411254882814	-1012.779846191406	-391.2446594238282	618.0051269531251	-780.7588500976565	-479.2835388183595	785.9841308593752	-911.248474121094	-501.9764709472657	766.9244995117189	-941.1699218750002	-509.7545471191407	767.8182373046876	-884.150085449219	-293.7885742187501	557.5819091796876	-1144.78564453125	-208.7680206298829	546.5631713867189	-1155.641479492188	-183.0631103515625	579.3537597656251	-1127.686279296875	-178.2603149414063	494.2600402832032	-1162.833251953125	-106.2560958862305	445.2480468750001	-1161.770385742188	-83.29309844970705	432.1770629882814	-1039.447509765625	-92.85750579833986	309.4876708984376	-1126.365112304688	-161.2863464355469	308.9622192382813	-1180.688354492188	-130.6969909667969	284.4570312500001	-1157.668334960938	-181.3717193603516	218.4935607910157	-1129.57568359375	-336.4479980468751	90.33518981933595	-1141.63427734375	-302.5202331542969	92.2187957763672	-1053.537109375	-404.9050292968751	52.05297470092775	-1086.392822265625	-178.7994079589844	61.39933013916017	-1107.151245117188	-184.3636016845703	60.04338836669923	-1154.452392578125	-240.0574188232422	37.5404396057129	-1201.955078125	-423.3181457519532	561.7657470703126	-677.1252441406251	-360.2964477539063	575.3136596679689	-660.2600708007814	-344.1799926757813	603.4583740234376	-665.5972900390626	-301.7228393554688	518.8167724609376	-643.5651245117189	-167.7539978027344	453.6202392578126	-613.8347167968751	-107.3912200927735	447.8146362304689	-733.7849731445314	-162.1264801025391	275.9700012207032	-692.6203002929689	-240.2498474121094	224.1568908691407	-632.9282226562501	-207.1597442626954	205.4175262451172	-660.5322265625001	-230.1719665527344	167.8361358642578	-697.8392333984376	-334.3587646484376	93.88491821289064	-664.8342285156251	-285.6872863769532	98.64945220947268	-746.4285278320314	-394.5127868652345	52.1736297607422	-733.5995483398439	-183.117660522461	54.12950897216798	-674.9958496093751	-196.4909973144532	61.44157028198244	-625.1396484375001	-252.817855834961	28.6716651916504	-584.9657592773439	
322	1.605	76.83713531494142	1145.689208984375	-799.4018554687502	-81.80404663085939	1103.321899414063	-873.8898925781252	87.39048767089845	1156.16845703125	-941.0223388671877	-119.3951187133789	1036.591552734375	-904.2236328125002	-363.5100708007813	865.087341308594	-910.6202392578127	-29.26195526123048	891.5443115234377	-873.9138793945315	16.15250968933106	923.8980712890627	-1036.414428710938	-116.8801879882813	924.5518188476565	-1227.544555664063	-131.8329010009766	876.5225219726565	-1230.769775390625	-168.1947937011719	903.4113769531252	-1270.929931640625	-243.9131317138672	878.198181152344	-1313.401245117188	-290.8938598632813	930.2836914062502	-1277.559936523438	-399.6416625976564	763.4755859375001	-1114.755249023438	-408.2166748046876	698.0247192382814	-1163.051025390625	-339.6032714843751	727.2044067382814	-1089.644775390625	-26.75742721557618	955.228454589844	-709.3200073242189	-207.3047790527344	989.5490722656252	-575.3197631835939	-224.1205291748047	941.8779907226565	-570.9356079101564	-267.7077636718751	969.9729614257815	-543.4573364257814	-338.5884094238282	965.2777099609377	-518.4121704101564	-386.7831115722657	995.5945434570315	-589.6134643554689	-410.3684997558595	774.2740478515627	-700.4712524414064	-409.7130737304689	723.6680908203126	-637.8952636718751	-359.2529907226563	721.3137207031251	-727.8867797851564	-369.0831909179688	607.6062011718751	-1012.91650390625	-389.7266235351564	617.2661743164064	-780.8757324218752	-479.3164978027345	784.270935058594	-911.5096435546877	-502.1773376464845	764.7508544921876	-941.427429199219	-509.7075500488282	765.8123168945314	-884.4923095703127	-293.5592651367188	556.5369262695314	-1144.364013671875	-208.9149627685547	546.4064941406251	-1154.996215820313	-183.0593566894532	578.5514526367189	-1127.013793945313	-177.8234100341797	493.5068664550782	-1162.31396484375	-105.3709335327149	444.2842102050782	-1161.253173828125	-82.67549896240236	431.8282470703126	-1038.58935546875	-92.43955230712892	309.2171630859376	-1125.844482421875	-160.8792724609375	308.7829895019532	-1180.24609375	-130.3777008056641	284.2436828613282	-1156.988159179688	-181.2312774658203	218.3528442382813	-1129.106811523438	-336.4033508300782	90.35149383544923	-1141.578979492188	-302.4828491210938	92.03994750976564	-1053.38134765625	-404.882049560547	52.06765365600587	-1086.375244140625	-178.7539520263672	61.41793441772462	-1107.080444335938	-184.3341522216797	60.03909301757814	-1154.414306640625	-239.9716949462891	37.63482284545899	-1201.904907226563	-423.3879699707032	560.3225097656251	-677.5867309570314	-360.6996765136719	573.7913818359376	-660.7954101562501	-344.3404541015626	602.1169433593751	-666.1865844726564	-301.6900634765626	517.7816772460939	-644.0917358398439	-167.4855651855469	453.3932495117189	-614.0686035156251	-108.3699188232422	446.925262451172	-733.5116577148439	-161.8223419189453	275.8463439941407	-693.0883789062501	-239.9955444335938	224.1003875732422	-633.1303710937501	-207.1074371337891	205.3404083251954	-660.7175903320314	-229.9665222167969	167.7325439453125	-698.0858764648439	-334.3009338378907	93.9227981567383	-664.9051513671876	-285.5452270507813	98.58259582519534	-746.5253295898439	-394.380828857422	52.21318435668947	-733.7235107421876	-183.069076538086	54.11967849731447	-675.0265502929689	-196.500961303711	61.42963790893556	-625.1414184570314	-252.8877868652344	28.69431686401368	-585.0012817382814	
